<mxfile host="app.diagrams.net" modified="2022-11-17T01:23:00.547Z" agent="5.0 (Windows NT 10.0; Win64; x64) AppleWebKit/537.36 (KHTML, like Gecko) Chrome/107.0.0.0 Safari/537.36" etag="gTSsC6zNkbD4hPMDfgDm" version="20.5.3" type="github">
  <diagram id="C5RBs43oDa-KdzZeNtuy" name="Page-1">
    <mxGraphModel dx="397" dy="609" grid="1" gridSize="10" guides="1" tooltips="1" connect="1" arrows="1" fold="1" page="1" pageScale="1" pageWidth="827" pageHeight="1169" math="0" shadow="0">
      <root>
        <mxCell id="WIyWlLk6GJQsqaUBKTNV-0" />
        <mxCell id="WIyWlLk6GJQsqaUBKTNV-1" parent="WIyWlLk6GJQsqaUBKTNV-0" />
        <mxCell id="9OKgFe4Zf76vUUmZSUTV-0" value="Player1" style="swimlane;fontStyle=0;childLayout=stackLayout;horizontal=1;startSize=30;horizontalStack=0;resizeParent=1;resizeParentMax=0;resizeLast=0;collapsible=1;marginBottom=0;whiteSpace=wrap;html=1;" vertex="1" parent="WIyWlLk6GJQsqaUBKTNV-1">
          <mxGeometry x="20" y="80" width="370" height="560" as="geometry" />
        </mxCell>
        <mxCell id="9OKgFe4Zf76vUUmZSUTV-9" value="- START_SPEED : float&lt;br&gt;- START_HEALTH : float&lt;br&gt;- m_Position : Vector2f&lt;br&gt;- m_Sprite : Sprite&lt;br&gt;- m_Texture : Texture&lt;br&gt;- m_Resolution : Vector2f&lt;br&gt;- m_Space : IntRect&lt;br&gt;- m_TileSize : int&lt;br&gt;- m_UpPressed : bool&lt;br&gt;- m_DownPressed : bool&lt;br&gt;- m_LeftPressed : bool&lt;br&gt;- m_RightPressed : bool&lt;br&gt;- m_Health : int&lt;br&gt;- m_MaxHealth : int&lt;br&gt;- m_LastHit : Time&lt;br&gt;- m_Speed : float" style="text;strokeColor=default;fillColor=none;align=left;verticalAlign=middle;spacingLeft=4;spacingRight=4;overflow=hidden;points=[[0,0.5],[1,0.5]];portConstraint=eastwest;rotatable=0;whiteSpace=wrap;html=1;" vertex="1" parent="9OKgFe4Zf76vUUmZSUTV-0">
          <mxGeometry y="30" width="370" height="240" as="geometry" />
        </mxCell>
        <mxCell id="9OKgFe4Zf76vUUmZSUTV-1" value="+ Player()&lt;br&gt;+ spawn(Space : IntRect, resolution : Vector2f, tileSize : int) : void&lt;br&gt;+ hit(timeHit : Time) : bool&lt;br&gt;+ getLastHitTime() : Time&lt;br&gt;+ getPosition() : FloatRect&lt;br&gt;+ getCenter() : Vector2f&lt;br&gt;+ getSprite() : Sprite&lt;br&gt;+ getHealth() : int&lt;br&gt;+ moveLeft() : void&lt;br&gt;+ moveRight() : void&lt;br&gt;+ moveUp() : void&lt;br&gt;+ moveDown() : void&lt;br&gt;+ stopLeft() : void&lt;br&gt;+ stopRight() : void&lt;br&gt;+ stopUp() : void&lt;br&gt;+ stopDown() : void&lt;br&gt;+ update(elapsedTime : float)&lt;br&gt;+ upgradeSpeed() : void&lt;br&gt;+ upgradeHealth() : void&lt;br&gt;+ increaseHealthLevel(amount : int) : void&amp;nbsp;" style="text;strokeColor=none;fillColor=none;align=left;verticalAlign=middle;spacingLeft=4;spacingRight=4;overflow=hidden;points=[[0,0.5],[1,0.5]];portConstraint=eastwest;rotatable=0;whiteSpace=wrap;html=1;" vertex="1" parent="9OKgFe4Zf76vUUmZSUTV-0">
          <mxGeometry y="270" width="370" height="290" as="geometry" />
        </mxCell>
        <mxCell id="j7B_bJ2AB_xZnDSFL6e8-0" value="Alien" style="swimlane;fontStyle=0;childLayout=stackLayout;horizontal=1;startSize=30;horizontalStack=0;resizeParent=1;resizeParentMax=0;resizeLast=0;collapsible=1;marginBottom=0;whiteSpace=wrap;html=1;" vertex="1" parent="WIyWlLk6GJQsqaUBKTNV-1">
          <mxGeometry x="470" y="650" width="280" height="330" as="geometry" />
        </mxCell>
        <mxCell id="j7B_bJ2AB_xZnDSFL6e8-1" value="-SPEED: const float&lt;br&gt;-HEALTH: const float&lt;br&gt;-MAX_VARIANCE: const int (MAY NOT NEED)&lt;br&gt;-OFFSET: const int(MAY NOT NEED)&lt;br&gt;-m_Position: Vector2f&lt;br&gt;-m_Sprite: Sprite&lt;br&gt;-m_Speed: float&lt;br&gt;-m_Health: float&lt;br&gt;-m_alive: bool" style="text;strokeColor=default;fillColor=none;align=left;verticalAlign=middle;spacingLeft=4;spacingRight=4;overflow=hidden;points=[[0,0.5],[1,0.5]];portConstraint=eastwest;rotatable=0;whiteSpace=wrap;html=1;" vertex="1" parent="j7B_bJ2AB_xZnDSFL6e8-0">
          <mxGeometry y="30" width="280" height="160" as="geometry" />
        </mxCell>
        <mxCell id="j7B_bJ2AB_xZnDSFL6e8-32" value="" style="text;strokeColor=none;fillColor=none;align=left;verticalAlign=middle;spacingLeft=4;spacingRight=4;overflow=hidden;points=[[0,0.5],[1,0.5]];portConstraint=eastwest;rotatable=0;whiteSpace=wrap;html=1;" vertex="1" parent="j7B_bJ2AB_xZnDSFL6e8-0">
          <mxGeometry y="190" width="280" height="20" as="geometry" />
        </mxCell>
        <mxCell id="j7B_bJ2AB_xZnDSFL6e8-2" value="+ hit() : bool" style="text;strokeColor=none;fillColor=none;align=left;verticalAlign=middle;spacingLeft=4;spacingRight=4;overflow=hidden;points=[[0,0.5],[1,0.5]];portConstraint=eastwest;rotatable=0;whiteSpace=wrap;html=1;" vertex="1" parent="j7B_bJ2AB_xZnDSFL6e8-0">
          <mxGeometry y="210" width="280" height="20" as="geometry" />
        </mxCell>
        <mxCell id="j7B_bJ2AB_xZnDSFL6e8-3" value="+ isAlive() : bool" style="text;strokeColor=none;fillColor=none;align=left;verticalAlign=middle;spacingLeft=4;spacingRight=4;overflow=hidden;points=[[0,0.5],[1,0.5]];portConstraint=eastwest;rotatable=0;whiteSpace=wrap;html=1;" vertex="1" parent="j7B_bJ2AB_xZnDSFL6e8-0">
          <mxGeometry y="230" width="280" height="20" as="geometry" />
        </mxCell>
        <mxCell id="j7B_bJ2AB_xZnDSFL6e8-4" value="+ spawn(float, float, int, int) : void" style="text;strokeColor=none;fillColor=none;align=left;verticalAlign=middle;spacingLeft=4;spacingRight=4;overflow=hidden;points=[[0,0.5],[1,0.5]];portConstraint=eastwest;rotatable=0;whiteSpace=wrap;html=1;" vertex="1" parent="j7B_bJ2AB_xZnDSFL6e8-0">
          <mxGeometry y="250" width="280" height="20" as="geometry" />
        </mxCell>
        <mxCell id="j7B_bJ2AB_xZnDSFL6e8-5" value="+ getPosition() : FloatRect" style="text;strokeColor=none;fillColor=none;align=left;verticalAlign=middle;spacingLeft=4;spacingRight=4;overflow=hidden;points=[[0,0.5],[1,0.5]];portConstraint=eastwest;rotatable=0;whiteSpace=wrap;html=1;" vertex="1" parent="j7B_bJ2AB_xZnDSFL6e8-0">
          <mxGeometry y="270" width="280" height="20" as="geometry" />
        </mxCell>
        <mxCell id="j7B_bJ2AB_xZnDSFL6e8-6" value="+ getSprite() : Sprite" style="text;strokeColor=none;fillColor=none;align=left;verticalAlign=middle;spacingLeft=4;spacingRight=4;overflow=hidden;points=[[0,0.5],[1,0.5]];portConstraint=eastwest;rotatable=0;whiteSpace=wrap;html=1;" vertex="1" parent="j7B_bJ2AB_xZnDSFL6e8-0">
          <mxGeometry y="290" width="280" height="20" as="geometry" />
        </mxCell>
        <mxCell id="j7B_bJ2AB_xZnDSFL6e8-7" value="+ update(float, Vector2f) : void" style="text;strokeColor=none;fillColor=none;align=left;verticalAlign=middle;spacingLeft=4;spacingRight=4;overflow=hidden;points=[[0,0.5],[1,0.5]];portConstraint=eastwest;rotatable=0;whiteSpace=wrap;html=1;" vertex="1" parent="j7B_bJ2AB_xZnDSFL6e8-0">
          <mxGeometry y="310" width="280" height="20" as="geometry" />
        </mxCell>
        <mxCell id="j7B_bJ2AB_xZnDSFL6e8-12" style="edgeStyle=orthogonalEdgeStyle;rounded=0;orthogonalLoop=1;jettySize=auto;html=1;exitX=1;exitY=0.5;exitDx=0;exitDy=0;entryX=0.964;entryY=0.5;entryDx=0;entryDy=0;entryPerimeter=0;" edge="1" parent="j7B_bJ2AB_xZnDSFL6e8-0" source="j7B_bJ2AB_xZnDSFL6e8-3" target="j7B_bJ2AB_xZnDSFL6e8-3">
          <mxGeometry relative="1" as="geometry" />
        </mxCell>
      </root>
    </mxGraphModel>
  </diagram>
</mxfile>
